<svg xmlns="http://www.w3.org/2000/svg" viewBox="0 0 32 40"><g data-name="Mail Box"><circle cx="16" cy="16" r="8"/><path d="M16 6a1 1 0 01-1-1V3a1 1 0 012 0v2a1 1 0 01-1 1zM23.78 9.22a1 1 0 01-.71-1.71l1.42-1.41a1 1 0 011.41 1.41l-1.41 1.42a1 1 0 01-.71.29zM29 17h-2a1 1 0 010-2h2a1 1 0 010 2zM25.19 26.19a1 1 0 01-.71-.29l-1.41-1.41a1 1 0 011.41-1.41l1.41 1.41a1 1 0 01-.71 1.71zM16 30a1 1 0 01-1-1v-2a1 1 0 012 0v2a1 1 0 01-1 1zM6.81 26.19a1 1 0 01-.71-1.71l1.41-1.41a1 1 0 011.41 1.41L7.51 25.9a1 1 0 01-.7.29zM5 17H3a1 1 0 010-2h2a1 1 0 010 2zM8.22 9.22a1 1 0 01-.71-.29L6.1 7.51A1 1 0 017.51 6.1l1.42 1.41a1 1 0 01-.71 1.71z"/></g><text y="47" font-size="5" font-weight="bold" font-family="'Helvetica Neue', Helvetica, Arial-Unicode, Arial, Sans-serif">Created by Saepul Nahwan</text><text y="52" font-size="5" font-weight="bold" font-family="'Helvetica Neue', Helvetica, Arial-Unicode, Arial, Sans-serif">from the Noun Project</text></svg>