<?xml version="1.0" standalone="no"?>
<!DOCTYPE svg PUBLIC "-//W3C//DTD SVG 20010904//EN"
 "http://www.w3.org/TR/2001/REC-SVG-20010904/DTD/svg10.dtd">
<svg version="1.0" xmlns="http://www.w3.org/2000/svg"
 width="1024.000000pt" height="1024.000000pt" viewBox="0 0 1024.000000 1024.000000"
 preserveAspectRatio="xMidYMid meet">
<metadata>
Created by potrace 1.14, written by Peter Selinger 2001-2017
</metadata>
<g transform="translate(0.000000,1024.000000) scale(0.100000,-0.100000)"
fill="#000000" stroke="none">
<path d="M7068 8095 c-2 -1 -46 -5 -98 -9 -52 -3 -104 -8 -115 -10 -11 -2 -47
-7 -80 -12 -33 -4 -62 -8 -65 -9 -3 0 -27 -4 -55 -9 -27 -4 -75 -14 -105 -21
-30 -8 -66 -16 -80 -19 -45 -8 -164 -43 -205 -60 -22 -10 -41 -17 -43 -16 -6
2 -58 -14 -67 -20 -5 -4 -21 -11 -35 -15 -14 -4 -50 -19 -80 -32 -30 -14 -75
-35 -100 -46 -25 -11 -48 -20 -52 -19 -3 1 -12 -5 -18 -13 -7 -8 -16 -15 -21
-15 -13 0 -204 -112 -207 -121 -2 -5 -8 -9 -12 -9 -5 0 -39 -21 -75 -47 -37
-27 -77 -55 -89 -63 -13 -8 -30 -22 -38 -30 -9 -8 -31 -26 -48 -40 -52 -40
-280 -268 -280 -280 0 -6 -4 -8 -10 -5 -5 3 -10 0 -10 -9 0 -8 -3 -16 -8 -18
-4 -1 -23 -23 -42 -48 -19 -25 -40 -51 -47 -58 -7 -7 -17 -21 -23 -30 -11 -19
-14 -16 -107 94 -169 200 -424 408 -653 532 -92 50 -225 114 -297 143 -13 5
-33 13 -45 19 -33 14 -255 87 -308 100 -42 11 -54 14 -105 25 -11 3 -31 7 -45
10 -28 7 -65 14 -95 19 -11 2 -31 7 -45 10 -14 3 -43 8 -65 10 -22 3 -58 7
-80 10 -129 18 -271 29 -377 30 -38 0 -68 4 -68 9 0 4 -5 5 -11 1 -15 -9
-1103 -9 -1118 0 -6 4 -11 4 -11 -1 0 -4 -258 -7 -574 -7 -524 2 -575 0 -578
-15 -2 -9 -4 -1316 -3 -2906 l0 -2890 255 -2 c140 -1 266 -3 280 -3 24 -2
1412 -2 1475 -1 17 1 147 3 290 6 143 3 274 7 290 9 17 3 57 8 90 11 86 9 116
13 153 19 17 3 47 9 65 12 32 5 49 8 97 18 14 3 36 7 50 10 14 2 54 12 90 21
36 9 72 18 80 20 8 2 76 24 150 50 74 25 141 47 148 47 6 1 12 5 12 10 0 4 3
7 7 6 14 -3 289 129 323 156 8 6 35 22 60 36 25 13 47 26 50 30 3 3 21 16 40
28 32 19 52 34 98 72 6 6 12 7 12 3 0 -4 4 -3 8 3 4 6 35 35 70 63 35 29 86
75 114 102 28 27 54 49 59 49 5 0 9 4 9 8 0 4 17 26 38 47 20 22 63 71 94 108
l58 68 32 -47 c18 -26 51 -67 73 -92 22 -25 46 -54 54 -65 15 -22 221 -227
221 -221 0 5 43 -31 88 -73 18 -18 37 -33 41 -33 4 0 22 -13 41 -30 19 -16 39
-29 43 -30 5 0 15 -6 22 -12 28 -25 44 -38 48 -38 2 0 42 -23 88 -51 138 -84
509 -253 509 -232 0 3 6 1 13 -5 7 -6 24 -13 37 -16 14 -3 41 -10 60 -16 19
-6 42 -13 50 -16 13 -4 103 -25 165 -39 36 -8 119 -24 155 -29 19 -3 45 -8 57
-10 12 -3 53 -8 90 -11 37 -4 82 -9 98 -11 17 -3 98 -6 180 -9 83 -3 152 -5
155 -6 3 -1 9 0 15 1 5 1 66 4 135 6 69 3 139 6 155 8 17 3 58 7 93 11 86 9
91 10 98 17 3 4 11 5 18 2 15 -6 267 47 354 74 34 11 62 18 62 16 0 -3 14 2
30 11 17 9 30 13 30 9 0 -4 6 -2 13 4 7 6 26 13 42 16 15 3 31 9 34 13 5 7 16
11 46 17 53 10 404 195 443 233 7 7 19 13 27 13 7 0 15 7 19 15 3 8 12 15 20
15 7 0 17 7 20 16 4 9 9 14 12 11 4 -3 12 0 20 6 8 7 27 23 43 37 16 14 42 35
57 48 63 51 197 187 262 265 75 89 206 277 194 277 -4 0 -2 4 4 8 9 5 124 218
131 242 7 23 18 51 33 85 10 22 24 58 30 80 7 22 19 56 26 75 8 19 25 79 39
134 25 99 31 123 41 185 3 18 8 43 10 55 3 11 7 44 10 71 3 28 8 61 10 75 13
62 15 147 19 648 l4 532 -1290 0 -1289 0 -1 -22 c-4 -143 -3 -258 3 -258 4 0
5 -6 2 -14 -8 -21 -10 -306 -2 -306 4 0 5 -6 2 -14 -9 -23 -10 -146 -1 -146 5
0 5 -5 1 -11 -8 -14 -8 -338 0 -347 4 -3 242 -6 529 -7 l522 0 -1 -25 c-3 -57
-15 -138 -30 -190 -8 -30 -16 -59 -17 -65 -6 -26 -80 -164 -105 -194 -63 -79
-183 -186 -196 -174 -3 3 -6 1 -6 -5 0 -10 -90 -56 -183 -93 -42 -17 -66 -24
-148 -43 -17 -5 -77 -15 -119 -22 -138 -21 -372 -22 -510 0 -106 16 -310 86
-370 126 -14 9 -52 34 -85 56 -57 38 -225 198 -225 214 0 5 -6 15 -14 23 -29
29 -149 241 -151 267 0 3 -3 10 -6 15 -6 10 -61 171 -65 190 -1 6 -7 30 -13
55 -24 97 -38 166 -46 240 -4 30 -9 68 -11 85 -3 16 -7 67 -9 113 -2 46 -6 86
-9 89 -3 3 -1 14 5 24 5 11 6 19 2 19 -12 0 -4 292 11 415 16 125 38 243 61
328 3 9 8 27 11 40 8 34 10 40 23 72 7 17 14 38 16 47 9 41 79 186 127 260 21
32 38 63 38 68 0 4 3 10 8 12 4 2 30 30 57 63 61 72 78 90 136 136 42 34 166
119 174 119 2 0 32 13 67 29 67 31 146 57 190 65 15 3 31 7 35 9 10 6 94 18
155 22 27 2 52 6 57 10 5 3 12 1 16 -5 4 -6 12 -7 18 -3 13 8 97 11 97 3 0 -3
37 -6 83 -7 84 -2 238 -36 312 -69 48 -21 44 -20 73 -29 12 -4 22 -12 22 -17
0 -5 4 -7 9 -3 5 3 15 -1 23 -8 7 -8 31 -25 53 -39 43 -28 105 -86 145 -137
14 -17 31 -38 38 -46 7 -8 19 -30 27 -49 8 -19 19 -37 23 -40 5 -3 22 -43 37
-90 25 -72 33 -85 55 -89 13 -3 32 -1 42 4 10 6 19 5 23 -1 6 -10 45 -7 64 4
5 4 12 3 14 -1 6 -10 209 -9 224 0 7 4 14 3 18 -3 6 -10 45 -7 64 4 5 4 12 3
14 -1 6 -10 209 -9 224 0 7 4 14 4 16 0 6 -10 209 -9 225 0 6 4 13 4 15 0 6
-10 209 -9 224 0 7 4 14 4 16 0 3 -5 83 -7 179 -6 203 2 227 3 210 10 -6 2
-10 8 -8 11 4 7 -17 140 -38 241 -9 41 -36 134 -50 171 -8 19 -14 37 -14 40 0
3 -5 18 -11 33 -6 16 -11 30 -11 31 0 2 -10 25 -22 52 -12 27 -23 51 -23 54
-5 26 -122 235 -161 287 -13 17 -24 35 -24 39 0 4 -7 14 -15 23 -8 9 -36 43
-62 76 -26 33 -52 63 -58 67 -5 4 -7 8 -4 8 15 0 -198 205 -286 275 -27 22
-55 45 -62 50 -27 22 -42 32 -125 88 -48 31 -92 57 -97 57 -5 0 -11 4 -13 9
-3 8 -285 150 -303 152 -5 0 -18 5 -28 10 -51 28 -279 102 -397 129 -19 5 -46
11 -60 14 -14 4 -38 9 -55 11 -16 3 -37 8 -45 10 -8 2 -33 7 -55 10 -22 2 -51
7 -65 10 -14 2 -52 7 -85 10 -33 4 -73 8 -90 11 -34 5 -452 13 -457 9z m-4288
-1429 c19 -3 55 -7 80 -10 71 -9 214 -38 225 -46 6 -4 18 -6 28 -5 9 2 17 -1
17 -6 0 -5 9 -9 20 -9 11 0 28 -4 38 -9 15 -8 48 -22 62 -26 16 -4 130 -65
140 -75 3 -3 17 -11 33 -19 15 -8 27 -18 27 -23 0 -4 5 -8 10 -8 6 0 24 -13
42 -30 17 -16 35 -30 40 -30 5 0 6 -4 3 -10 -3 -5 1 -10 9 -10 9 0 16 -4 16
-9 0 -5 14 -24 31 -42 49 -53 103 -137 146 -229 41 -86 54 -117 58 -135 2 -5
12 -40 24 -76 12 -37 23 -79 24 -95 1 -16 5 -31 8 -34 4 -3 9 -26 12 -53 3
-26 8 -51 10 -55 4 -6 10 -51 23 -185 3 -26 6 -82 8 -126 2 -43 6 -83 10 -89
3 -6 2 -13 -4 -17 -7 -4 -7 -12 0 -26 6 -11 7 -19 1 -19 -5 0 -6 -14 -1 -35 4
-20 4 -38 -1 -41 -5 -3 -5 -13 1 -25 8 -14 7 -19 -1 -19 -8 0 -9 -4 0 -13 6
-8 8 -17 4 -20 -3 -4 -8 -55 -11 -114 -2 -60 -5 -123 -6 -140 0 -18 -3 -33 -6
-33 -3 0 -6 -17 -7 -38 -1 -20 -5 -53 -8 -72 -3 -19 -8 -53 -11 -75 -3 -21 -8
-43 -10 -47 -3 -5 -7 -21 -10 -36 -23 -138 -116 -356 -197 -464 -16 -21 -26
-38 -23 -38 3 0 -32 -38 -79 -85 -46 -47 -86 -85 -89 -85 -3 0 -29 -17 -59
-37 -54 -38 -143 -83 -217 -108 -3 -1 -12 -4 -20 -8 -20 -8 -88 -28 -103 -31
-7 -1 -37 -8 -67 -14 -167 -34 -252 -39 -660 -38 l-385 1 0 1567 0 1566 395
-4 c217 -2 411 -5 430 -8z"/>
</g>
</svg>
